HIERARCHY
ROOT hip
{
	OFFSET 0.000000 0.000000 0.000000 
	CHANNELS 6 Xposition Yposition Zposition Xrotation Zrotation Yrotation
	JOINT abdomen
	{
		OFFSET 0.000000 3.402643 0.000000 
		CHANNELS 3 Xrotation Zrotation Yrotation
		JOINT chest
		{
			OFFSET 0.000000 8.438565 -0.680529 
			CHANNELS 3 Xrotation Zrotation Yrotation
			JOINT neck
			{
				OFFSET 0.000000 10.207942 -0.272212 
				CHANNELS 3 Xrotation Zrotation Yrotation
				JOINT head
				{
					OFFSET 0.000000 3.130431 0.000000 
					CHANNELS 3 Xrotation Zrotation Yrotation
					End Site
					{
						OFFSET 0.000000 3.130435 0.000000 
					}
				}
			}
			JOINT lCollar
			{
				OFFSET 3.470700 6.669187 -0.816635 
				CHANNELS 3 Yrotation Zrotation Xrotation
				JOINT lShldr
				{
					OFFSET 3.198488 0.000000 0.000000 
					CHANNELS 3 Zrotation Yrotation Xrotation
					JOINT lForeArm
					{
						OFFSET 10.139888 0.000000 0.000000 
						CHANNELS 3 Yrotation Zrotation Xrotation
						JOINT lHand
						{
							OFFSET 8.370511 0.000000 0.000000 
							CHANNELS 3 Zrotation Yrotation Xrotation
							End Site
							{
								OFFSET 4.083176 0.000000 0.000000 
							}
						}
					}
				}
			}
			JOINT rCollar
			{
				OFFSET -3.470700 6.669187 -0.816635 
				CHANNELS 3 Yrotation Zrotation Xrotation
				JOINT rShldr
				{
					OFFSET -3.198488 0.000000 0.000000 
					CHANNELS 3 Zrotation Yrotation Xrotation
					JOINT rForeArm
					{
						OFFSET -10.139888 0.000000 0.000000 
						CHANNELS 3 Yrotation Zrotation Xrotation
						JOINT rHand
						{
							OFFSET -8.370511 0.000000 0.000000 
							CHANNELS 3 Zrotation Yrotation Xrotation
							End Site
							{
								OFFSET -4.083176 0.000000 0.000000 
							}
						}
					}
				}
			}
		}
	}
	JOINT lThigh
	{
		OFFSET 5.308129 -1.633274 1.361059 
		CHANNELS 3 Xrotation Zrotation Yrotation
		JOINT lShin
		{
			OFFSET -2.041588 -20.007561 0.000000 
			CHANNELS 3 Xrotation Zrotation Yrotation
			JOINT lFoot
			{
				OFFSET 0.000000 -19.190928 -1.224953 
				CHANNELS 3 Xrotation Yrotation Zrotation
				End Site
				{
					OFFSET 0.000000 -2.449906 4.627600 
				}
			}
		}
	}
	JOINT rThigh
	{
		OFFSET -5.308129 -1.633274 1.361059 
		CHANNELS 3 Xrotation Zrotation Yrotation
		JOINT rShin
		{
			OFFSET 2.041588 -20.007561 0.000000 
			CHANNELS 3 Xrotation Zrotation Yrotation
			JOINT rFoot
			{
				OFFSET 0.000000 -19.190928 -1.224953 
				CHANNELS 3 Xrotation Yrotation Zrotation
				End Site
				{
					OFFSET 0.000000 -2.449906 4.627600 
				}
			}
		}
	}
}
MOTION
Frames: 8
Frame Time: 0.050000
0.000000 53.498543 0.305648 0.000000 0.000000 0.000000 0.000000 0.000000 0.000000 0.000000 0.000000 0.000000 0.367328 -0.122586 0.003688 -1.910388 0.052142 -0.064158 2.359324 -2.316271 -0.063351 -73.643448 5.713897 15.991600 -31.462919 -0.620898 -13.161567 13.054979 -0.173112 -0.354671 -1.684516 2.874621 -0.063351 74.344635 -6.450793 15.991600 32.183846 -1.833764 -11.741384 -13.516831 0.386068 -2.803593 -7.548020 3.866529 0.146894 15.727672 -3.219886 -0.982961 -8.494112 1.099455 -0.807164 -7.531943 -4.331991 0.100592 15.676721 3.192008 0.586786 -8.565728 -1.589841 0.974711 
0.000000 53.498543 0.305648 0.000000 0.000000 0.000000 0.000000 0.000000 0.000000 0.000000 0.000000 0.000000 0.802014 -0.270401 0.008877 -4.214870 0.120828 -0.142668 2.771035 1.800837 -0.063351 -77.966408 0.495712 15.991600 -42.308048 9.897460 -29.674206 21.700916 -0.173112 -0.908918 -1.272805 -0.561171 -0.063351 79.531059 -2.181052 15.991600 43.955574 -15.324852 -26.557936 -22.663103 0.709155 -6.522226 -7.548020 3.866529 0.146894 15.727672 -3.219886 -0.982961 -8.494112 1.099454 -0.807164 -7.531943 -4.331994 0.100592 15.676721 3.192008 0.586786 -8.565729 -1.589838 0.974711 
0.000000 53.498543 0.305648 0.000000 0.000000 0.000000 0.000000 0.000000 0.000000 0.000000 0.000000 0.000000 1.294754 -0.414935 0.010116 -6.597465 0.169684 -0.219563 3.178673 5.877219 -0.063351 -82.246605 -4.617686 15.991600 -53.320869 20.602043 -44.993542 30.261320 -0.173112 -1.809449 -0.865167 -3.962975 -0.063351 84.636528 2.179665 15.991600 55.708366 -29.057991 -40.058472 -31.958145 0.789797 -9.889403 -7.548020 3.866528 0.146894 15.728039 -3.219703 -0.973204 -8.495323 1.089980 -0.807879 -7.531943 -4.331992 0.100592 15.676721 3.192009 0.586786 -8.565728 -1.589839 0.974711 
0.000000 53.498543 0.305648 0.000000 0.000000 0.000000 0.000000 0.000000 0.000000 0.000000 0.000000 0.000000 1.888061 -0.531434 0.000000 -8.892377 0.156028 -0.281915 3.521920 9.309690 -0.063351 -85.850700 -8.771230 15.991600 -63.380901 30.446301 -54.945900 37.469501 -0.173112 -3.574270 -0.521920 -6.827420 -0.063351 88.850700 6.232730 15.991600 65.883698 -41.696301 -48.080200 -40.469501 0.173112 -11.824300 -7.548020 3.866529 0.146894 15.727672 -3.219886 -0.982961 -8.494112 1.099455 -0.807164 -7.531943 -4.331991 0.100592 15.676721 3.192008 0.586786 -8.565728 -1.589841 0.974711 
0.000000 53.498543 0.305648 0.000000 0.000000 0.000000 0.000000 0.000000 0.000000 0.000000 0.000000 0.000000 2.617826 -0.601891 -0.026184 -10.977924 0.063093 -0.320327 3.755250 11.642985 -0.063351 -88.300667 -11.331834 15.991601 -71.600525 38.568550 -56.591438 42.369392 -0.173112 -6.534157 -0.288592 -8.774579 -0.063351 91.538361 9.650799 15.991601 73.279678 -52.135441 -47.718956 -47.438057 -1.428900 -11.636526 -7.548020 3.866529 0.146894 15.727672 -3.219887 -0.982961 -8.494112 1.099454 -0.807164 -7.531943 -4.331991 0.100592 15.676721 3.192005 0.586786 -8.565728 -1.589840 0.974711 
0.000000 53.498543 0.305648 0.000000 0.000000 0.000000 0.000000 0.000000 0.000000 0.000000 0.000000 0.000000 3.493444 -0.635294 -0.062400 -12.908875 -0.022234 -0.339544 3.892303 13.013525 -0.063351 -89.739738 -12.554363 15.991600 -78.023590 44.846653 -51.925694 45.247482 -0.173112 -10.270973 -0.151540 -9.918302 -0.063351 92.764786 12.391685 15.991600 78.121010 -60.201313 -41.105148 -52.798084 -3.636732 -10.197443 -7.548021 3.866528 0.146894 15.727672 -3.219887 -0.982961 -8.494112 1.099455 -0.807164 -7.531943 -4.331993 0.100592 15.676721 3.192006 0.586786 -8.565728 -1.589839 0.974711 
0.000000 53.498543 0.305648 0.000000 0.000000 0.000000 0.000000 0.000000 0.000000 0.000000 0.000000 0.000000 4.517685 -0.647382 -0.099923 -14.784105 0.012851 -0.347845 3.961515 13.705649 -0.063351 -90.466461 -12.915668 15.991599 -82.926804 49.343353 -44.178059 46.700909 -0.173112 -14.179343 -0.082329 -10.495878 -0.063351 92.770393 14.484486 15.991599 80.989067 -65.952377 -31.627846 -56.657192 -5.903994 -8.768854 -7.548021 3.866528 0.146894 15.727672 -3.219887 -0.982961 -8.494112 1.099455 -0.807164 -7.531943 -4.331993 0.100592 15.676721 3.192006 0.586786 -8.565728 -1.589839 0.974711 
0.000000 53.498543 0.305648 0.000000 0.000000 0.000000 0.000000 0.000000 0.000000 0.000000 0.000000 0.000000 5.693322 -0.653890 -0.130028 -16.702492 0.281149 -0.353507 3.991320 14.003700 -0.063351 -90.779404 -12.892600 15.991600 -86.586899 52.121399 -36.577900 47.326801 -0.173112 -17.653900 -0.052524 -10.744600 -0.063351 91.795601 15.958300 15.991600 82.465202 -69.447098 -22.676100 -59.123001 -7.684300 -8.612560 -7.548020 3.866529 0.146894 15.728039 -3.219704 -0.973204 -8.495323 1.089983 -0.807879 -7.531943 -4.331994 0.100592 15.676721 3.192006 0.586786 -8.565729 -1.589838 0.974711 
